<svg width="46" height="45" viewBox="0 0 46 45" fill="none" xmlns="http://www.w3.org/2000/svg">
<rect x="0.101562" width="45" height="45" rx="8" fill="url(#paint0_linear_90414_275)"/>
<g filter="url(#filter0_d_90414_275)">
<path d="M28.3718 16.4617C28.6618 16.169 29.0558 16.0031 29.4677 16C29.8796 15.997 30.276 16.1572 30.5702 16.4455C30.8644 16.7338 31.0325 17.1269 31.0378 17.5388C31.0431 17.9507 30.8851 18.348 30.5983 18.6437L22.3019 29.0153C22.1594 29.1687 21.9874 29.2919 21.7962 29.3774C21.6051 29.4629 21.3986 29.509 21.1892 29.513C20.9798 29.5169 20.7718 29.4786 20.5775 29.4004C20.3832 29.3222 20.2067 29.2056 20.0585 29.0576L14.5579 23.5591C14.2656 23.2667 14.1015 22.8701 14.1016 22.4566C14.1017 22.0431 14.266 21.6466 14.5585 21.3543C14.8509 21.062 15.2475 20.8979 15.661 20.898C16.0744 20.8981 16.4709 21.0624 16.7632 21.3549L21.1136 25.7062L28.3306 16.5104C28.3437 16.4936 28.3578 16.4777 28.3729 16.4627L28.3718 16.4617Z" fill="white"/>
</g>
<defs>
<filter id="filter0_d_90414_275" x="14.1016" y="16" width="16.9364" height="15.5132" filterUnits="userSpaceOnUse" color-interpolation-filters="sRGB">
<feFlood flood-opacity="0" result="BackgroundImageFix"/>
<feColorMatrix in="SourceAlpha" type="matrix" values="0 0 0 0 0 0 0 0 0 0 0 0 0 0 0 0 0 0 127 0" result="hardAlpha"/>
<feOffset dy="2"/>
<feColorMatrix type="matrix" values="0 0 0 0 0 0 0 0 0 0 0 0 0 0 0 0 0 0 0.1 0"/>
<feBlend mode="normal" in2="BackgroundImageFix" result="effect1_dropShadow_90414_275"/>
<feBlend mode="normal" in="SourceGraphic" in2="effect1_dropShadow_90414_275" result="shape"/>
</filter>
<linearGradient id="paint0_linear_90414_275" x1="22.6016" y1="0" x2="22.6016" y2="45" gradientUnits="userSpaceOnUse">
<stop stop-color="#89F09C"/>
<stop offset="1" stop-color="#3CC755"/>
</linearGradient>
</defs>
</svg>
