<svg width="45" height="45" viewBox="0 0 45 45" fill="none" xmlns="http://www.w3.org/2000/svg">
<rect width="45" height="45" rx="7" fill="#FEF0F0"/>
<path d="M31.4393 17.6099C31.1318 16.9035 30.6884 16.2633 30.134 15.7253C29.5792 15.1856 28.925 14.7568 28.2071 14.4621C27.4627 14.1552 26.6643 13.9982 25.8582 14C24.7273 14 23.6239 14.3073 22.665 14.8877C22.4356 15.0265 22.2177 15.179 22.0113 15.3452C21.8048 15.179 21.5869 15.0265 21.3575 14.8877C20.3986 14.3073 19.2953 14 18.1644 14C17.35 14 16.5609 14.1548 15.8154 14.4621C15.0951 14.758 14.4459 15.1836 13.8885 15.7253C13.3334 16.2627 12.8899 16.903 12.5833 17.6099C12.2644 18.3451 12.1016 19.1258 12.1016 19.9292C12.1016 20.6872 12.2575 21.477 12.5672 22.2804C12.8264 22.9519 13.1981 23.6484 13.6729 24.3517C14.4253 25.4647 15.4599 26.6255 16.7444 27.8022C18.8732 29.7528 20.9813 31.1003 21.0708 31.1549L21.6144 31.5009C21.8553 31.6534 22.165 31.6534 22.4058 31.5009L22.9495 31.1549C23.0389 31.098 25.1448 29.7528 27.2758 27.8022C28.5604 26.6255 29.5949 25.4647 30.3474 24.3517C30.8222 23.6484 31.1961 22.9519 31.453 22.2804C31.7627 21.477 31.9187 20.6872 31.9187 19.9292C31.921 19.1258 31.7581 18.3451 31.4393 17.6099Z" fill="#FF8585"/>
</svg>
