<svg width="30" height="30" viewBox="0 0 30 30" fill="none" xmlns="http://www.w3.org/2000/svg">
<path fill-rule="evenodd" clip-rule="evenodd" d="M0 15C0 6.8685 6.8685 0 15 0C23.1315 0 30 6.8685 30 15C30 19.785 27.612 24.117 24 26.886V27H23.847C21.345 28.8675 18.2805 30 15 30C11.7195 30 8.655 28.8675 6.153 27H6V26.886C2.388 24.117 0 19.7835 0 15ZM10.6852 22.854C9.88731 23.4959 9.33205 24.3906 9.111 25.3905C10.863 26.406 12.876 27 15 27C17.124 27 19.137 26.406 20.889 25.3905C20.6677 24.3907 20.1124 23.4962 19.3145 22.8543C18.5167 22.2124 17.524 21.8616 16.5 21.8595H13.5C12.476 21.8613 11.4831 22.2121 10.6852 22.854ZM20.6516 20.1175C21.8816 20.9361 22.8428 22.0993 23.415 23.4615C25.6155 21.273 27 18.264 27 15C27 8.4945 21.5055 3 15 3C8.4945 3 3 8.4945 3 15C3 18.264 4.3845 21.273 6.585 23.4615C7.15717 22.0993 8.1184 20.9361 9.3484 20.1175C10.5784 19.299 12.0225 18.8614 13.5 18.8595H16.5C17.9775 18.8614 19.4216 19.299 20.6516 20.1175ZM9 12C9 8.58 11.58 6 15 6C18.42 6 21 8.58 21 12C21 15.42 18.42 18 15 18C11.58 18 9 15.42 9 12ZM12 12C12 13.767 13.233 15 15 15C16.767 15 18 13.767 18 12C18 10.233 16.767 9 15 9C13.233 9 12 10.233 12 12Z" fill="#9B9B9B"/>
</svg>
