 <svg display="none" 
    xmlns="http://www.w3.org/2000/svg">

    <symbol id="basket" viewBox="0 0 46 46">
<path d="M41.6514 13.7862C41.3916 13.4233 41.043 13.2418 40.6055 13.2418H12.7559L12 11.274C11.8086 10.6289 11.5488 10.0778 11.2207 9.6208C10.8926 9.16381 10.5439 8.84123 10.1748 8.65306C9.80566 8.46489 9.48438 8.3372 9.21094 8.27C8.9375 8.20279 8.66406 8.16919 8.39062 8.16919H2.77148C2.41602 8.16919 2.11523 8.29016 1.86914 8.53209C1.62305 8.77403 1.5 9.08317 1.5 9.45951C1.5 9.67457 1.55469 9.8829 1.66406 10.0845C1.77344 10.2861 1.93066 10.4407 2.13574 10.5482C2.34082 10.6557 2.55273 10.7095 2.77148 10.7095H8.39062C8.5 10.7095 8.60254 10.723 8.69824 10.7498C8.79395 10.7767 8.92383 10.891 9.08789 11.0926C9.25195 11.2942 9.38867 11.5966 9.49805 11.9998L15.3809 28.1531C15.4355 28.3144 15.5244 28.4689 15.6475 28.6168C15.7705 28.7646 15.9141 28.8789 16.0781 28.9595C16.2422 29.0402 16.4199 29.0805 16.6113 29.0805H34.3301C34.6035 29.0805 34.8564 28.9998 35.0889 28.8385C35.3213 28.6773 35.4785 28.4756 35.5605 28.2337L41.8359 14.9757C41.9727 14.5456 41.9111 14.1491 41.6514 13.7862ZM33.4277 26.4998H17.6367L13.4531 15.8225H38.7188L33.4277 26.4998ZM31.0625 30.4798C30.1602 30.4798 29.3877 30.7957 28.7451 31.4274C28.1025 32.0591 27.7812 32.8186 27.7812 33.7057C27.7812 34.5928 28.1025 35.3522 28.7451 35.9839C29.3877 36.6156 30.1602 36.9315 31.0625 36.9315C31.9648 36.9315 32.7373 36.6156 33.3799 35.9839C34.0225 35.3522 34.3438 34.5928 34.3438 33.7057C34.3438 32.8186 34.0225 32.0591 33.3799 31.4274C32.7373 30.7957 31.9648 30.4798 31.0625 30.4798ZM19.25 30.4798C18.6484 30.4798 18.0947 30.6277 17.5889 30.9234C17.083 31.2191 16.6865 31.6089 16.3994 32.0927C16.1123 32.5766 15.9688 33.1143 15.9688 33.7057C15.9688 34.5928 16.29 35.3522 16.9326 35.9839C17.5752 36.6156 18.3477 36.9315 19.25 36.9315C20.1523 36.9315 20.9248 36.6156 21.5674 35.9839C22.21 35.3522 22.5312 34.5928 22.5312 33.7057C22.5312 33.4906 22.5107 33.2755 22.4697 33.0605C22.4287 32.8454 22.3672 32.6438 22.2852 32.4557C22.2031 32.2675 22.1006 32.086 21.9775 31.9113C21.8545 31.7366 21.7178 31.5753 21.5674 31.4274C21.417 31.2796 21.2529 31.1452 21.0752 31.0242C20.8975 30.9032 20.7129 30.8024 20.5215 30.7218C20.3301 30.6411 20.125 30.5806 19.9062 30.5403C19.6875 30.5 19.4688 30.4798 19.25 30.4798Z"/>
    </symbol>

    <symbol id="favorite" viewBox="0 0 30 30">
<rect x="0.5" y="0.5" width="29" height="29" rx="6.5" fill="white" stroke="#F8F8F8"/>
<path d="M15.3899 20.6864C15.4509 20.6476 16.8854 19.7313 18.3371 18.4025C19.2122 17.6008 19.917 16.8101 20.4295 16.0519C20.753 15.5727 21.0077 15.0983 21.1828 14.6409C21.3937 14.0935 21.5 13.5555 21.5 13.0392C21.5015 12.4918 21.3906 11.96 21.1734 11.4592C20.9639 10.9779 20.6619 10.5418 20.2842 10.1753L15.3899 20.6864ZM15.3899 20.6864L15.0196 20.9221M15.3899 20.6864L15.0196 20.9221M20.7148 11.6585C20.5314 11.2373 20.267 10.8553 19.936 10.5341L19.9356 10.5337C19.6035 10.2108 19.2118 9.9539 18.7817 9.77731L18.781 9.77704C18.3348 9.59311 17.856 9.49891 17.3725 9.50001L17.3714 9.50001C16.6917 9.50001 16.0296 9.68466 15.4551 10.0325L15.455 10.0325C15.3176 10.1157 15.1874 10.2068 15.0643 10.3059L14.7508 10.5582L14.4373 10.3059C14.3142 10.2068 14.184 10.1157 14.0465 10.0325L14.0465 10.0325C13.4719 9.68466 12.8099 9.50001 12.1302 9.50001C11.6398 9.50001 11.1671 9.59299 10.7205 9.77705L10.72 9.77727C10.2882 9.95465 9.89974 10.2094 9.56579 10.5339L9.56511 10.5346L9.56511 10.5346C9.23393 10.8552 8.96959 11.2369 8.78688 11.6581L20.7148 11.6585ZM20.7148 11.6585C20.9048 12.0966 21.0013 12.5602 21 13.0377V13.0392C21 13.4865 20.9079 13.9636 20.7162 14.461L20.7158 14.4622C20.557 14.8772 20.3218 15.3178 20.0153 15.7718C19.5302 16.4894 18.854 17.2509 17.9995 18.0336C16.5792 19.3337 15.1726 20.232 15.1216 20.2645L15.1215 20.2646L14.7521 20.4996L14.7521 20.4996L14.7517 20.4998L14.75 20.5L14.7483 20.4998L14.7479 20.4996L14.7479 20.4996L14.3785 20.2646L14.3786 20.2645L14.3706 20.2597C14.371 20.2599 14.3705 20.2596 14.3691 20.2587C14.3666 20.2571 14.3612 20.2537 14.3522 20.248C14.3394 20.2398 14.3214 20.2282 14.2985 20.2133C14.2529 20.1835 14.1884 20.1409 14.1077 20.0864C13.9463 19.9774 13.7208 19.8211 13.4524 19.625C12.9146 19.2322 12.2084 18.6823 11.5007 18.0338L11.5006 18.0338C10.6462 17.2511 9.96994 16.4896 9.48483 15.7721L20.7148 11.6585ZM15.0196 20.9221C14.8555 21.026 14.6445 21.026 14.4804 20.9221H15.0196ZM8.5 13.0392C8.5 12.5605 8.59679 12.0964 8.78686 11.6581L8.78374 14.461C8.59204 13.9636 8.5 13.4865 8.5 13.0392ZM9.48481 15.772C9.17888 15.3189 8.94468 14.8778 8.78377 14.461L9.48481 15.772Z" stroke="#ECECEC"/>
    </symbol>

        <symbol id="plus" viewBox="0 0 45 45">
<rect x="0.5" y="0.5" width="44" height="44" rx="7.5" fill="white" stroke="#F2F2F2"/>
<path d="M29.0605 21.2783H24.1905V16.4084C24.1905 14.5305 21.2781 14.5305 21.2781 16.4084V21.2783H16.4081C14.5306 21.2783 14.5306 24.1905 16.4081 24.1905H21.2781V29.0604C21.2781 30.9382 24.1905 30.9382 24.1905 29.0604V24.1905H29.0605C30.9382 24.1905 30.9382 21.2783 29.0605 21.2783Z" fill="#D3D3D3"/>
    </symbol>

            <symbol id="close-delete" viewBox="0 0 32 32">
<rect x="0.5" y="0.5" width="31" height="31" rx="7.5" fill="white" stroke="#DBDBDB"/>
<path d="M20.0799 18.6155L17.6311 16.1667L20.0798 13.718C21.0241 12.7738 19.5596 11.3093 18.6154 12.2536L16.1667 14.7023L13.7179 12.2535C12.7738 11.3095 11.3095 12.7738 12.2535 13.7179L14.7023 16.1667L12.2536 18.6154C11.3093 19.5596 12.7738 21.0241 13.718 20.0798L16.1667 17.6311L18.6155 20.0799C19.5597 21.0241 21.0241 19.5597 20.0799 18.6155Z" fill="#B5B5B5"/>
    </symbol>

                <symbol id="plus-success" viewBox="0 0 46 45">
<rect x="0.101562" width="45" height="45" rx="8" fill="url(#paint0_linear_90414_275)"/>
<g filter="url(#filter0_d_90414_275)">
<path d="M28.3718 16.4617C28.6618 16.169 29.0558 16.0031 29.4677 16C29.8796 15.997 30.276 16.1572 30.5702 16.4455C30.8644 16.7338 31.0325 17.1269 31.0378 17.5388C31.0431 17.9507 30.8851 18.348 30.5983 18.6437L22.3019 29.0153C22.1594 29.1687 21.9874 29.2919 21.7962 29.3774C21.6051 29.4629 21.3986 29.509 21.1892 29.513C20.9798 29.5169 20.7718 29.4786 20.5775 29.4004C20.3832 29.3222 20.2067 29.2056 20.0585 29.0576L14.5579 23.5591C14.2656 23.2667 14.1015 22.8701 14.1016 22.4566C14.1017 22.0431 14.266 21.6466 14.5585 21.3543C14.8509 21.062 15.2475 20.8979 15.661 20.898C16.0744 20.8981 16.4709 21.0624 16.7632 21.3549L21.1136 25.7062L28.3306 16.5104C28.3437 16.4936 28.3578 16.4777 28.3729 16.4627L28.3718 16.4617Z" fill="white"/>
</g>
<defs>
<filter id="filter0_d_90414_275" x="14.1016" y="16" width="16.9364" height="15.5132" filterUnits="userSpaceOnUse" color-interpolation-filters="sRGB">
<feFlood flood-opacity="0" result="BackgroundImageFix"/>
<feColorMatrix in="SourceAlpha" type="matrix" values="0 0 0 0 0 0 0 0 0 0 0 0 0 0 0 0 0 0 127 0" result="hardAlpha"/>
<feOffset dy="2"/>
<feColorMatrix type="matrix" values="0 0 0 0 0 0 0 0 0 0 0 0 0 0 0 0 0 0 0.1 0"/>
<feBlend mode="normal" in2="BackgroundImageFix" result="effect1_dropShadow_90414_275"/>
<feBlend mode="normal" in="SourceGraphic" in2="effect1_dropShadow_90414_275" result="shape"/>
</filter>
<linearGradient id="paint0_linear_90414_275" x1="22.6016" y1="0" x2="22.6016" y2="45" gradientUnits="userSpaceOnUse">
<stop stop-color="#89F09C"/>
<stop offset="1" stop-color="#3CC755"/>
</linearGradient>
</defs>
    </symbol>

</svg>